<svg width="12" height="10" viewBox="0 0 12 10" fill="none" xmlns="http://www.w3.org/2000/svg">
<path d="M11.25 3.24501L10.5 0.995012C10.4739 0.917394 10.4232 0.85045 10.3554 0.804405C10.2877 0.758359 10.2068 0.735744 10.125 0.740012H1.87502C1.79325 0.735744 1.71232 0.758359 1.64461 0.804405C1.5769 0.85045 1.52612 0.917394 1.50002 0.995012L0.750024 3.24501C0.744621 3.28483 0.744621 3.32519 0.750024 3.36501V5.61501C0.750024 5.71447 0.789532 5.80985 0.859859 5.88018C0.930185 5.9505 1.02557 5.99001 1.12502 5.99001H1.50002V9.74001H2.25002V5.99001H4.50002V9.74001H10.5V5.99001H10.875C10.9745 5.99001 11.0699 5.9505 11.1402 5.88018C11.2105 5.80985 11.25 5.71447 11.25 5.61501V3.36501C11.2554 3.32519 11.2554 3.28483 11.25 3.24501ZM9.75002 8.99001H5.25002V5.99001H9.75002V8.99001ZM10.5 5.24001H9.00002V3.74001H8.25002V5.24001H6.37502V3.74001H5.62502V5.24001H3.75002V3.74001H3.00002V5.24001H1.50002V3.42501L2.14502 1.49001H9.85502L10.5 3.42501V5.24001Z" fill="#618D80"/>
</svg>
