<svg width="21" height="20" viewBox="0 0 21 20" xmlns="http://www.w3.org/2000/svg">
<path d="M17.018 20H3.98852C3.06331 20 2.17599 19.6325 1.52177 18.9782C0.86754 18.324 0.5 17.4367 0.5 16.5115V3.48197C0.501737 2.55789 0.870044 1.67225 1.52408 1.01945C2.17812 0.366638 3.06445 -1.63251e-06 3.98852 0H17.018C17.4753 0 17.9281 0.0900637 18.3505 0.265049C18.773 0.440034 19.1568 0.696514 19.4802 1.01984C19.8035 1.34318 20.06 1.72702 20.2349 2.14948C20.4099 2.57193 20.5 3.02471 20.5 3.48197V16.5115C20.5 17.4356 20.1334 18.3219 19.4806 18.9759C18.8277 19.63 17.9421 19.9983 17.018 20ZM3.98852 1.63934C3.746 1.63848 3.50568 1.68551 3.28137 1.77772C3.05705 1.86993 2.85315 2.00552 2.68135 2.17671C2.50955 2.3479 2.37324 2.55132 2.28023 2.77531C2.18722 2.99929 2.13934 3.23944 2.13934 3.48197V16.5115C2.13934 17.0019 2.33417 17.4723 2.68096 17.819C3.02775 18.1658 3.49809 18.3607 3.98852 18.3607H17.018C17.2606 18.3607 17.5007 18.3128 17.7247 18.2198C17.9487 18.1268 18.1521 17.9904 18.3233 17.8186C18.4945 17.6468 18.6301 17.4429 18.7223 17.2186C18.8145 16.9943 18.8615 16.754 18.8607 16.5115V3.48197C18.8607 2.99327 18.6665 2.52459 18.321 2.17904C17.9754 1.83348 17.5067 1.63934 17.018 1.63934H3.98852Z" fill="#4A4A4A"/>
<path d="M7.89016 10.8197C7.66379 10.8189 7.44021 10.7697 7.23442 10.6754C6.9466 10.5447 6.70293 10.3332 6.53298 10.0666C6.36304 9.80004 6.27413 9.48988 6.27704 9.17377V0.819672C6.27704 0.602282 6.3634 0.393795 6.51712 0.240076C6.67084 0.0863581 6.87932 0 7.09671 0C7.31411 0 7.52259 0.0863581 7.67631 0.240076C7.83003 0.393795 7.91639 0.602282 7.91639 0.819672V9.17377L9.45737 7.80984C9.74697 7.55129 10.1216 7.40839 10.5098 7.40839C10.898 7.40839 11.2727 7.55129 11.5623 7.80984L13.1426 9.18033L13.0902 0.819672C13.0902 0.602282 13.1765 0.393795 13.3302 0.240076C13.484 0.0863581 13.6924 0 13.9098 0C14.1272 0 14.3357 0.0863581 14.4894 0.240076C14.6431 0.393795 14.7295 0.602282 14.7295 0.819672V9.17377C14.7324 9.48988 14.6435 9.80004 14.4736 10.0666C14.3036 10.3332 14.0599 10.5447 13.7721 10.6754C13.4929 10.8038 13.1823 10.848 12.8783 10.8026C12.5743 10.7572 12.2902 10.6241 12.0606 10.4197L10.5 9.06885L8.93934 10.4262C8.64941 10.6811 8.2762 10.8211 7.89016 10.8197ZM11.4836 15.9475H5.58196C5.36457 15.9475 5.15608 15.8612 5.00236 15.7075C4.84865 15.5537 4.76229 15.3453 4.76229 15.1279C4.76229 14.9105 4.84865 14.702 5.00236 14.5483C5.15608 14.3946 5.36457 14.3082 5.58196 14.3082H11.4836C11.701 14.3082 11.9095 14.3946 12.0632 14.5483C12.2169 14.702 12.3033 14.9105 12.3033 15.1279C12.3033 15.3453 12.2169 15.5537 12.0632 15.7075C11.9095 15.8612 11.701 15.9475 11.4836 15.9475Z" fill="#4A4A4A"/>
</svg>
