<svg width="20" height="22" viewBox="0 0 20 22" fill="none" xmlns="http://www.w3.org/2000/svg">
<path d="M2 0L0.1875 4.77976H7.09375L8 0H2ZM12 0L12.9062 4.77976H19.8125L18 0H12ZM0 5.40179V22H20V5.40179H13V12.5714L12 11.5238L11 12.5714L10 11.5238L9 12.5714L8 11.5238L7 12.5714V5.40179H0ZM3 15.7143H9C9.552 15.7143 10 16.1333 10 16.7619V18.8571C10 19.381 9.552 19.9048 9 19.9048H3C2.4475 19.9048 2 19.381 2 18.8571V16.7619C2 16.1333 2.4475 15.7143 3 15.7143ZM3 16.7619V18.8571H4V16.7619H3ZM5 16.7619V18.8571H9V16.7619H5Z" fill="#618D80"/>
</svg>
