<svg width="8" height="8" viewBox="0 0 8 8" fill="none" xmlns="http://www.w3.org/2000/svg">
<path fill-rule="evenodd" clip-rule="evenodd" d="M0 6.49923C0 6.6318 0.0468252 6.75894 0.130175 6.85268C0.213524 6.94642 0.32657 6.99908 0.444444 6.99908H0.964444C1.05627 7.29176 1.22655 7.5452 1.45182 7.72446C1.67709 7.90373 1.94626 8 2.22222 8C2.49818 8 2.76735 7.90373 2.99262 7.72446C3.21789 7.5452 3.38818 7.29176 3.48 6.99908L7.55556 6.99908C7.67343 6.99908 7.78648 6.94642 7.86983 6.85268C7.95317 6.75894 8 6.6318 8 6.49923C8 6.36667 7.95317 6.23953 7.86983 6.14579C7.78648 6.05205 7.67343 5.99939 7.55556 5.99939L3.48 5.99939C3.38818 5.70671 3.21789 5.45327 2.99262 5.274C2.76735 5.09474 2.49818 4.99847 2.22222 4.99847C1.94626 4.99847 1.67709 5.09474 1.45182 5.274C1.22655 5.45327 1.05627 5.70671 0.964444 5.99939H0.444444C0.32657 5.99939 0.213524 6.05205 0.130175 6.14579C0.0468252 6.23953 0 6.36667 0 6.49923ZM2.22222 5.99939C2.3401 5.99939 2.45314 6.05205 2.53649 6.14579C2.61984 6.23953 2.66667 6.36667 2.66667 6.49923C2.66667 6.6318 2.61984 6.75894 2.53649 6.85268C2.45314 6.94642 2.3401 6.99908 2.22222 6.99908C2.10435 6.99908 1.9913 6.94642 1.90795 6.85268C1.8246 6.75894 1.77778 6.6318 1.77778 6.49923C1.77778 6.36667 1.8246 6.23953 1.90795 6.14579C1.9913 6.05205 2.10435 5.99939 2.22222 5.99939ZM0 1.50077C0 1.63333 0.0468252 1.76047 0.130175 1.85421C0.213524 1.94795 0.32657 2.00061 0.444444 2.00061L4.07556 2.00061C4.16738 2.29329 4.33766 2.54673 4.56293 2.726C4.7882 2.90526 5.05737 3.00153 5.33333 3.00153C5.60929 3.00153 5.87846 2.90526 6.10373 2.726C6.329 2.54673 6.49929 2.29329 6.59111 2.00061H7.55556C7.67343 2.00061 7.78648 1.94795 7.86983 1.85421C7.95317 1.76047 8 1.63333 8 1.50077C8 1.3682 7.95317 1.24106 7.86983 1.14732C7.78648 1.05358 7.67343 1.00092 7.55556 1.00092H6.59111C6.49929 0.708242 6.329 0.454803 6.10373 0.275536C5.87846 0.0962686 5.60929 0 5.33333 0C5.05737 0 4.7882 0.0962686 4.56293 0.275536C4.33766 0.454803 4.16738 0.708242 4.07556 1.00092L0.444444 1.00092C0.32657 1.00092 0.213524 1.05358 0.130175 1.14732C0.0468252 1.24106 0 1.3682 0 1.50077ZM5.33333 1.00092C5.45121 1.00092 5.56425 1.05358 5.6476 1.14732C5.73095 1.24106 5.77778 1.3682 5.77778 1.50077C5.77778 1.63333 5.73095 1.76047 5.6476 1.85421C5.56425 1.94795 5.45121 2.00061 5.33333 2.00061C5.21546 2.00061 5.10241 1.94795 5.01906 1.85421C4.93571 1.76047 4.88889 1.63333 4.88889 1.50077C4.88889 1.3682 4.93571 1.24106 5.01906 1.14732C5.10241 1.05358 5.21546 1.00092 5.33333 1.00092Z" fill="#618D80"/>
</svg>
