<svg width="12" height="13" viewBox="0 0 12 13" fill="none" xmlns="http://www.w3.org/2000/svg">
<path d="M11.25 4.74501L10.5 2.49501C10.4739 2.41739 10.4231 2.35045 10.3554 2.3044C10.2877 2.25836 10.2068 2.23574 10.125 2.24001H1.875C1.79323 2.23574 1.7123 2.25836 1.64459 2.3044C1.57687 2.35045 1.52609 2.41739 1.5 2.49501L0.750001 4.74501C0.744598 4.78483 0.744598 4.82519 0.750001 4.86501V7.11501C0.750001 7.21447 0.78951 7.30985 0.859836 7.38018C0.930162 7.4505 1.02554 7.49001 1.125 7.49001H1.5V11.24H2.25V7.49001H4.5V11.24H10.5V7.49001H10.875C10.9745 7.49001 11.0698 7.4505 11.1402 7.38018C11.2105 7.30985 11.25 7.21447 11.25 7.11501V4.86501C11.2554 4.82519 11.2554 4.78483 11.25 4.74501ZM9.75 10.49H5.25V7.49001H9.75V10.49ZM10.5 6.74001H9V5.24001H8.25V6.74001H6.375V5.24001H5.625V6.74001H3.75V5.24001H3V6.74001H1.5V4.92501L2.145 2.99001H9.855L10.5 4.92501V6.74001Z" fill="#618D80"/>
</svg>
