<svg width="21" height="24" viewBox="0 0 21 24" fill="none" xmlns="http://www.w3.org/2000/svg">
<path d="M17.9509 19.9916H15.0098V17.0679H16.1862V18.8221H17.9509V19.9916Z" fill="#618D80"/>
<path d="M15.402 7.90685H2.46082V2.44922H15.402V7.90685ZM3.63729 6.73735H14.2255V3.61871H3.63729V6.73735ZM5.99023 12.5848H2.46082V9.07634H5.99023V12.5848ZM3.63729 11.4153H4.81376V10.2458H3.63729V11.4153ZM10.6961 12.5848H7.1667V9.07634H10.6961V12.5848ZM8.34317 11.4153H9.51964V10.2458H8.34317V11.4153ZM15.402 12.5848H11.8726V9.07634H15.402V12.5848ZM13.0491 11.4153H14.2255V10.2458H13.0491V11.4153ZM5.99023 16.4831H2.46082V12.9746H5.99023V16.4831ZM3.63729 15.3136H4.81376V14.1441H3.63729V15.3136ZM10.6961 16.4831H7.1667V12.9746H10.6961V16.4831ZM8.34317 15.3136H9.51964V14.1441H8.34317V15.3136Z" fill="#618D80"/>
<path d="M13.049 14.8458H11.8726V12.9746H14.8137V14.1441H13.049V14.8458Z" fill="#618D80"/>
<path d="M10.5627 18.822H0.5V0.5H17.3627V13.6217H16.1863V1.66949H1.67647V17.6525H10.5627V18.822Z" fill="#618D80"/>
<path d="M15.9902 23.4999C15.0982 23.4999 14.2263 23.237 13.4846 22.7444C12.743 22.2518 12.165 21.5516 11.8236 20.7325C11.4823 19.9133 11.393 19.0119 11.567 18.1423C11.741 17.2726 12.1705 16.4738 12.8012 15.8469C13.4319 15.2199 14.2355 14.7929 15.1103 14.62C15.9852 14.447 16.8919 14.5358 17.716 14.8751C18.54 15.2144 19.2444 15.789 19.7399 16.5262C20.2355 17.2635 20.5 18.1302 20.5 19.0169C20.4979 20.2052 20.0221 21.3443 19.1768 22.1846C18.3315 23.0249 17.1856 23.4979 15.9902 23.4999V23.4999ZM15.9902 15.7033C15.3309 15.7033 14.6864 15.8976 14.1383 16.2617C13.5901 16.6258 13.1628 17.1433 12.9106 17.7488C12.6583 18.3543 12.5923 19.0205 12.7209 19.6633C12.8495 20.3061 13.167 20.8965 13.6331 21.3599C14.0993 21.8233 14.6932 22.1389 15.3399 22.2668C15.9865 22.3946 16.6567 22.329 17.2658 22.0782C17.8749 21.8274 18.3954 21.4027 18.7617 20.8578C19.128 20.3129 19.3235 19.6722 19.3235 19.0169C19.3235 18.1381 18.9723 17.2952 18.3472 16.6738C17.7221 16.0524 16.8742 15.7033 15.9902 15.7033V15.7033Z" fill="#618D80"/>
</svg>
