<svg width="15" height="16" viewBox="0 0 15 16" fill="none" xmlns="http://www.w3.org/2000/svg">
<path d="M2.38074 13.4885C2.67005 13.7749 3.06072 13.9356 3.46785 13.9356C3.87497 13.9356 4.26564 13.7749 4.55496 13.4885L4.86099 13.182C5.13401 13.3205 5.41454 13.4385 5.70557 13.533V13.9645C5.70741 14.3712 5.86979 14.7607 6.15739 15.0482C6.44498 15.3358 6.83451 15.4982 7.24122 15.5H7.75778C8.60086 15.5 9.29693 14.8075 9.29693 13.9645V13.529C9.58633 13.4357 9.8679 13.3197 10.139 13.182L10.445 13.4885C10.7344 13.7749 11.125 13.9356 11.5322 13.9356C11.9393 13.9356 12.3299 13.7749 12.6193 13.4885L12.9883 13.1215C13.2747 12.8318 13.4354 12.4409 13.4354 12.0335C13.4354 11.6261 13.2747 11.2352 12.9883 10.9455L12.6823 10.643C12.8208 10.37 12.9388 10.089 13.0328 9.798H13.4643C14.3079 9.798 15 9.1015 15 8.2585V7.742C15 6.899 14.3069 6.203 13.4643 6.203H13.0288C12.9355 5.91385 12.8197 5.63248 12.6823 5.3615L12.9883 5.055C13.2747 4.76571 13.4354 4.37508 13.4354 3.968C13.4354 3.56092 13.2747 3.17029 12.9883 2.881L12.6193 2.512C12.3299 2.22559 11.9393 2.06493 11.5322 2.06493C11.125 2.06493 10.7344 2.22559 10.445 2.512L10.139 2.818C9.86775 2.68066 9.58621 2.56464 9.29693 2.471V2.039C9.29444 1.6316 9.13148 1.2416 8.84337 0.953516C8.55526 0.665436 8.16522 0.502492 7.75778 0.5H7.24122C6.39814 0.5 5.70557 1.1965 5.70557 2.039V2.467C5.41454 2.5615 5.13301 2.679 4.86099 2.8175L4.55496 2.5115C4.26564 2.22509 3.87497 2.06443 3.46785 2.06443C3.06072 2.06443 2.67005 2.22509 2.38074 2.5115L2.0147 2.881C1.72875 3.17054 1.5684 3.56108 1.5684 3.968C1.5684 4.37492 1.72875 4.76546 2.0147 5.055L2.31723 5.3615C2.18004 5.63258 2.06418 5.91393 1.9707 6.203H1.53865C1.13122 6.20536 0.741154 6.36828 0.453097 6.6564C0.165039 6.94453 0.00223111 7.33461 0 7.742V8.2585C0.00235966 8.6659 0.165194 9.05596 0.453209 9.34413C0.741224 9.63231 1.13121 9.79538 1.53865 9.798H1.9707C2.06521 10.0885 2.17872 10.371 2.31723 10.643L2.0147 10.9455C1.7285 11.2353 1.56802 11.6262 1.56802 12.0335C1.56802 12.4408 1.7285 12.8317 2.0147 13.1215L2.38074 13.4885ZM7.24122 1.501H7.75778C8.06381 1.501 8.29683 1.7335 8.29683 2.04V2.8005C8.29725 2.91191 8.33487 3.01998 8.40372 3.10758C8.47257 3.19517 8.5687 3.25726 8.67687 3.284C9.14472 3.40047 9.59266 3.58583 10.006 3.834C10.1013 3.89107 10.2129 3.91478 10.3232 3.90138C10.4335 3.88798 10.5362 3.83823 10.6151 3.76L11.1541 3.221C11.2033 3.16968 11.2623 3.12884 11.3277 3.10094C11.393 3.07304 11.4633 3.05866 11.5344 3.05866C11.6055 3.05866 11.6758 3.07304 11.7412 3.10094C11.8065 3.12884 11.8655 3.16968 11.9147 3.221L12.2797 3.59C12.4963 3.8065 12.4963 4.13 12.2797 4.3465L11.7447 4.8855C11.6649 4.96423 11.614 5.06749 11.6 5.17867C11.5861 5.28985 11.6099 5.40249 11.6677 5.4985C11.9169 5.91161 12.1033 6.35952 12.2207 6.8275C12.2772 7.0485 12.4762 7.2035 12.7043 7.204H13.4648C13.7704 7.204 13.9999 7.4365 13.9999 7.743V8.2595C13.9999 8.5655 13.7704 8.7985 13.4648 8.7985H12.7043C12.5923 8.79823 12.4834 8.83552 12.3951 8.90441C12.3068 8.9733 12.2442 9.06981 12.2172 9.1785C12.1008 9.64624 11.9152 10.094 11.6667 10.507C11.5507 10.704 11.5817 10.955 11.7437 11.116L12.2787 11.655C12.3301 11.7041 12.3709 11.7632 12.3988 11.8285C12.4267 11.8939 12.4411 11.9642 12.4411 12.0352C12.4411 12.1063 12.4267 12.1766 12.3988 12.242C12.3709 12.3073 12.3301 12.3664 12.2787 12.4155L11.9137 12.781C11.8645 12.8323 11.8055 12.8732 11.7402 12.9011C11.6748 12.929 11.6045 12.9433 11.5334 12.9433C11.4623 12.9433 11.392 12.929 11.3267 12.9011C11.2613 12.8732 11.2023 12.8323 11.1531 12.781L10.6141 12.242C10.5351 12.1638 10.4324 12.1142 10.3221 12.1009C10.2118 12.0876 10.1003 12.1114 10.005 12.1685C9.59157 12.4165 9.14366 12.6019 8.67587 12.7185C8.56704 12.7454 8.47041 12.8081 8.40149 12.8965C8.33257 12.9849 8.29536 13.0939 8.29583 13.206V13.9665C8.29721 14.0375 8.28418 14.108 8.25752 14.1738C8.23087 14.2396 8.19115 14.2993 8.14076 14.3493C8.09037 14.3993 8.03036 14.4386 7.96436 14.4647C7.89836 14.4909 7.82775 14.5034 7.75678 14.5015H7.24022C7.16925 14.5034 7.09863 14.4909 7.03264 14.4647C6.96664 14.4386 6.90663 14.3993 6.85624 14.3493C6.80585 14.2993 6.76613 14.2396 6.73948 14.1738C6.71282 14.108 6.69979 14.0375 6.70117 13.9665V13.206C6.70184 13.0944 6.66513 12.9857 6.59689 12.8974C6.52865 12.809 6.43281 12.7461 6.32463 12.7185C5.85694 12.602 5.40916 12.4167 4.996 12.1685C4.90031 12.1105 4.78792 12.0861 4.67678 12.0995C4.56565 12.1128 4.46219 12.163 4.38294 12.242L3.84788 12.781C3.79873 12.8323 3.7397 12.8732 3.67434 12.9011C3.60899 12.929 3.53866 12.9433 3.4676 12.9433C3.39653 12.9433 3.32621 12.929 3.26085 12.9011C3.19549 12.8732 3.13646 12.8323 3.08731 12.781L2.71827 12.4155C2.66695 12.3664 2.62611 12.3073 2.5982 12.242C2.5703 12.1766 2.55592 12.1063 2.55592 12.0352C2.55592 11.9642 2.5703 11.8939 2.5982 11.8285C2.62611 11.7632 2.66695 11.7041 2.71827 11.655L3.25733 11.116C3.33541 11.037 3.38497 10.9343 3.39819 10.824C3.41141 10.7137 3.38754 10.6022 3.33033 10.507C3.08264 10.0936 2.89729 9.64597 2.78028 9.1785C2.75337 9.06968 2.69068 8.97306 2.60226 8.90415C2.51385 8.83523 2.40483 8.79803 2.29273 8.7985H1.53665C1.46551 8.79986 1.39483 8.78685 1.32884 8.76023C1.26285 8.73362 1.20292 8.69396 1.15263 8.64363C1.10234 8.5933 1.06273 8.53333 1.03618 8.46733C1.00962 8.40132 0.996673 8.33063 0.9981 8.2595V7.743C0.9981 7.437 1.30213 7.3015 1.53665 7.204C1.77118 7.107 2.29723 7.204 2.29723 7.204C2.52575 7.2035 2.72427 7.0485 2.78128 6.8275C2.89785 6.35972 3.08322 5.91184 3.33133 5.4985C3.38928 5.40282 3.41357 5.29051 3.40034 5.17944C3.38711 5.06836 3.33712 4.9649 3.25833 4.8855L2.71877 4.3465C2.6675 4.29774 2.62667 4.23907 2.59877 4.17404C2.57088 4.10902 2.55649 4.039 2.55649 3.96825C2.55649 3.8975 2.57088 3.82748 2.59877 3.76246C2.62667 3.69743 2.6675 3.63876 2.71877 3.59L3.08781 3.221C3.13662 3.16972 3.19534 3.12889 3.26041 3.10099C3.32548 3.07309 3.39555 3.0587 3.46635 3.0587C3.53715 3.0587 3.60721 3.07309 3.67228 3.10099C3.73735 3.12889 3.79608 3.16972 3.84488 3.221L4.38394 3.76C4.46309 3.83918 4.56653 3.88951 4.67768 3.90293C4.78884 3.91634 4.90128 3.89207 4.997 3.834C5.41025 3.586 5.858 3.40065 6.32563 3.284C6.43377 3.25653 6.5296 3.19365 6.59784 3.10539C6.66609 3.01713 6.70281 2.90856 6.70217 2.797V2.04C6.70217 1.7335 6.93519 1.501 7.24122 1.501ZM7.50025 5.166C5.94109 5.166 4.66897 6.442 4.66897 8.0005C4.66897 9.559 5.94109 10.835 7.50025 10.835C9.05891 10.835 10.335 9.559 10.335 8.0005C10.335 6.442 9.05891 5.166 7.50025 5.166ZM7.50025 6.166C7.74142 6.16514 7.98039 6.21201 8.20337 6.30389C8.42635 6.39578 8.62895 6.53088 8.79948 6.7014C8.97002 6.87192 9.10513 7.07449 9.19703 7.29745C9.28892 7.52041 9.33579 7.75935 9.33493 8.0005C9.33579 8.24165 9.28892 8.48059 9.19703 8.70355C9.10513 8.92651 8.97002 9.12908 8.79948 9.2996C8.62895 9.47012 8.42635 9.60522 8.20337 9.69711C7.98039 9.78899 7.74142 9.83586 7.50025 9.835C7.25928 9.8358 7.02054 9.78886 6.79781 9.6969C6.57508 9.60494 6.37277 9.46978 6.20257 9.29922C6.03236 9.12866 5.89763 8.92607 5.80615 8.70317C5.71466 8.48026 5.66824 8.24144 5.66957 8.0005C5.66831 7.75958 5.71478 7.52079 5.80628 7.29791C5.89779 7.07503 6.03253 6.87248 6.20272 6.70193C6.37291 6.53138 6.57519 6.39622 6.79789 6.30424C7.02059 6.21225 7.2593 6.16527 7.50025 6.166Z" fill="black"/>
</svg>
