<svg width="10" height="9" viewBox="0 0 10 9" fill="none" xmlns="http://www.w3.org/2000/svg">
<path d="M8.73433 3.03099L6.19533 2.66199L5.06033 0.360987C5.02933 0.297987 4.97833 0.246987 4.91533 0.215987C4.75733 0.137987 4.56533 0.202987 4.48633 0.360987L3.35133 2.66199L0.812334 3.03099C0.742334 3.04099 0.678334 3.07399 0.629334 3.12399C0.570096 3.18487 0.537453 3.26679 0.538578 3.35173C0.539703 3.43667 0.574504 3.51769 0.635334 3.57699L2.47233 5.36799L2.03833 7.89699C2.02816 7.95582 2.03467 8.01632 2.05713 8.07164C2.07959 8.12696 2.1171 8.17488 2.1654 8.20996C2.21371 8.24505 2.27088 8.2659 2.33043 8.27014C2.38999 8.27439 2.44954 8.26186 2.50233 8.23399L4.77333 7.03999L7.04433 8.23399C7.10633 8.26699 7.17833 8.27799 7.24733 8.26599C7.42133 8.23599 7.53833 8.07099 7.50833 7.89699L7.07433 5.36799L8.91133 3.57699C8.96133 3.52799 8.99433 3.46399 9.00433 3.39399C9.03133 3.21899 8.90933 3.05699 8.73433 3.03099Z" fill="#FFD600"/>
</svg>
