<svg width="16" height="17" viewBox="0 0 16 17" fill="none" xmlns="http://www.w3.org/2000/svg">
<path d="M1.35211 0.746826L0.12676 3.6832H4.79577L5.40845 0.746826H1.35211ZM8.11267 0.746826L8.72535 3.6832H13.3944L12.169 0.746826H8.11267ZM0 4.06533V14.2622H13.5211V4.06533H8.78873V8.46988L8.11267 7.82629L7.43661 8.46988L6.76056 7.82629L6.0845 8.46988L5.40845 7.82629L4.73239 8.46988V4.06533H0ZM2.02817 10.4006H6.0845C6.45769 10.4006 6.76056 10.6581 6.76056 11.0442V12.3314C6.76056 12.6532 6.45769 12.975 6.0845 12.975H2.02817C1.65465 12.975 1.35211 12.6532 1.35211 12.3314V11.0442C1.35211 10.6581 1.65465 10.4006 2.02817 10.4006ZM2.02817 11.0442V12.3314H2.70422V11.0442H2.02817ZM3.38028 11.0442V12.3314H6.0845V11.0442H3.38028Z" fill="#618D80"/>
<path fill-rule="evenodd" clip-rule="evenodd" d="M13.7465 16.7574C14.9911 16.7574 16 15.8266 16 14.6782C16 13.5298 14.9911 12.5989 13.7465 12.5989C12.5019 12.5989 11.493 13.5298 11.493 14.6782C11.493 15.8266 12.5019 16.7574 13.7465 16.7574ZM13.5211 13.8464C13.5211 13.7913 13.5449 13.7384 13.5871 13.6994C13.6294 13.6604 13.6867 13.6385 13.7465 13.6385C13.8063 13.6385 13.8636 13.6604 13.9058 13.6994C13.9481 13.7384 13.9718 13.7913 13.9718 13.8464V14.4702H14.6479C14.7077 14.4702 14.765 14.4921 14.8072 14.5311C14.8495 14.5701 14.8732 14.623 14.8732 14.6782C14.8732 14.7333 14.8495 14.7862 14.8072 14.8252C14.765 14.8642 14.7077 14.8861 14.6479 14.8861H13.9718V15.5099C13.9718 15.565 13.9481 15.6179 13.9058 15.6569C13.8636 15.6959 13.8063 15.7178 13.7465 15.7178C13.6867 15.7178 13.6294 15.6959 13.5871 15.6569C13.5449 15.6179 13.5211 15.565 13.5211 15.5099V14.8861H12.8451C12.7853 14.8861 12.728 14.8642 12.6857 14.8252C12.6435 14.7862 12.6197 14.7333 12.6197 14.6782C12.6197 14.623 12.6435 14.5701 12.6857 14.5311C12.728 14.4921 12.7853 14.4702 12.8451 14.4702H13.5211V13.8464Z" fill="black"/>
</svg>
