<svg width="20" height="22" viewBox="0 0 20 22" fill="none" xmlns="http://www.w3.org/2000/svg">
<path d="M14.66 0C18.06 0 20 2.112 20 5.863V16.137C20 19.866 18.07 22 14.67 22H5.33C1.92 22 0 19.866 0 16.137V5.863C0 2.112 1.92 0 5.33 0H14.66ZM9.99 6.061C9.53 6.061 9.16 6.468 9.16 6.974V10.076H6.33C6.11 10.076 5.9 10.175 5.74 10.34C5.59 10.516 5.5 10.7459 5.5 10.989C5.5 11.495 5.87 11.902 6.33 11.913H9.16V15.026C9.16 15.532 9.53 15.939 9.99 15.939C10.45 15.939 10.82 15.532 10.82 15.026V11.913H13.66C14.12 11.902 14.49 11.495 14.49 10.989C14.49 10.483 14.12 10.076 13.66 10.076H10.82V6.974C10.82 6.468 10.45 6.061 9.99 6.061Z" fill="#618D80"/>
</svg>
