<svg width="23" height="22" viewBox="0 0 23 22" fill="none" xmlns="http://www.w3.org/2000/svg">
<path d="M3.13934 12.3168V20.0909C3.13934 20.332 3.2257 20.5632 3.37942 20.7337C3.53314 20.9042 3.74163 21 3.95902 21H18.7131C18.9305 21 19.139 20.9042 19.2927 20.7337C19.4464 20.5632 19.5328 20.332 19.5328 20.0909V12.317M3.75762 1H18.9145C19.0926 1 19.2659 1.06435 19.4081 1.18332C19.5503 1.30229 19.6537 1.46939 19.7026 1.65934L21.1721 7.36364H1.5L2.96949 1.65934C3.01842 1.46939 3.12182 1.30229 3.26402 1.18332C3.40623 1.06435 3.5795 1 3.75762 1Z" stroke="#618D80" stroke-width="1.5" stroke-linecap="round" stroke-linejoin="round"/>
<path d="M8.38526 8.33325V10.1514C8.38526 11.1159 8.03983 12.0408 7.42495 12.7227C6.81008 13.4047 5.97613 13.7878 5.10657 13.7878C4.23701 13.7878 3.40306 13.4047 2.78819 12.7227C2.17331 12.0408 1.82788 11.1159 1.82788 10.1514V8.33325M14.9426 8.33325V10.1514C14.9426 11.1159 14.5972 12.0408 13.9823 12.7227C13.3675 13.4047 12.5335 13.7878 11.6639 13.7878C10.7944 13.7878 9.96044 13.4047 9.34556 12.7227C8.73069 12.0408 8.38526 11.1159 8.38526 10.1514V8.33325M21.5 8.33325V10.1514C21.5 11.1159 21.1546 12.0408 20.5397 12.7227C19.9248 13.4047 19.0909 13.7878 18.2213 13.7878C17.3518 13.7878 16.5178 13.4047 15.9029 12.7227C15.2881 12.0408 14.9426 11.1159 14.9426 10.1514V8.33325" stroke="#618D80" stroke-width="1.5" stroke-linecap="round" stroke-linejoin="round"/>
</svg>
