<svg width="40" height="40" viewBox="0 0 40 40" fill="none" xmlns="http://www.w3.org/2000/svg">
<path fill-rule="evenodd" clip-rule="evenodd" d="M20 0C14.6957 0 9.60859 2.10714 5.85786 5.85786C2.10714 9.60859 0 14.6957 0 20C0 25.3043 2.10714 30.3914 5.85786 34.1421C9.60859 37.8929 14.6957 40 20 40C25.3043 40 30.3914 37.8929 34.1421 34.1421C37.8929 30.3914 40 25.3043 40 20C40 14.6957 37.8929 9.60859 34.1421 5.85786C30.3914 2.10714 25.3043 0 20 0V0ZM26.608 11.2C26.8395 11.1991 27.0688 11.2438 27.283 11.3317C27.4972 11.4195 27.6919 11.5488 27.856 11.712L29.8912 13.744C30.2182 14.0765 30.4014 14.5241 30.4014 14.9904C30.4014 15.4567 30.2182 15.9043 29.8912 16.2368L28.344 17.7808L27.7504 18.3744L17.44 28.6848L10.6432 30.9504L12.9088 24.1536L23.2448 13.8688L23.2256 13.8496L25.3632 11.712C25.6939 11.3831 26.1416 11.199 26.608 11.2ZM26.608 12.7872C26.5712 12.7872 26.5344 12.8064 26.496 12.8432L24.9248 14.4112L27.2064 16.6592L28.7584 15.1072C28.8336 15.0336 28.8336 14.9472 28.7584 14.8752L26.7264 12.8432C26.7116 12.8266 26.6937 12.8131 26.6736 12.8035C26.6536 12.7939 26.6318 12.7883 26.6096 12.7872H26.608ZM23.8128 15.5632L15.0768 24.256L17.344 26.5216L26.072 17.7904L23.8128 15.5632ZM14.1248 25.568L13.1744 28.4224L16.032 27.4688L14.1248 25.568Z" fill="#FB7777"/>
</svg>
