<svg width="201" height="200" viewBox="0 0 201 200" fill="none" xmlns="http://www.w3.org/2000/svg">
<path d="M158.933 164.785V175.676C142.194 188.602 121.642 195.614 100.494 195.614C79.3457 195.614 58.794 188.602 42.0554 175.676V164.785C42.0554 149.285 48.2123 134.42 59.1717 123.46C70.1311 112.5 84.9951 106.342 100.494 106.342C115.993 106.342 130.857 112.5 141.816 123.46C152.776 134.42 158.933 149.285 158.933 164.785ZM121.585 42.465C126.441 47.3005 129.47 53.6709 130.155 60.4901C130.839 67.3092 129.138 74.1548 125.34 79.8596C121.542 85.5644 115.883 89.775 109.328 91.7736C102.773 93.7722 95.7278 93.435 89.3936 90.8195C83.0594 88.2039 77.8284 83.472 74.5927 77.4306C71.357 71.3892 70.317 64.4124 71.6498 57.6898C72.9827 50.9673 76.606 44.9152 81.902 40.5656C87.1979 36.216 93.8385 33.8383 100.691 33.8378C104.571 33.8267 108.414 34.5833 112 36.0639C115.586 37.5446 118.843 39.72 121.585 42.465Z" fill="#ADCEC4"/>
<path d="M100.494 4.38599C153.297 4.38599 196.101 47.1931 196.101 100C196.115 114.619 192.771 129.045 186.326 142.166C179.882 155.287 170.51 166.752 158.932 175.676V164.785C158.932 149.285 152.776 134.42 141.816 123.46C130.857 112.5 115.993 106.342 100.494 106.342C84.995 106.342 70.1309 112.5 59.1715 123.46C48.2122 134.42 42.0553 149.285 42.0553 164.785V175.676C30.478 166.752 21.1057 155.287 14.6613 142.166C8.2169 129.045 4.8728 114.619 4.88701 100C4.88701 47.1931 47.6908 4.38599 100.494 4.38599ZM130.211 63.3598C130.197 56.5479 127.822 49.9515 123.491 44.6937C119.16 39.436 113.141 35.842 106.458 34.5237C99.7754 33.2053 92.8425 34.2441 86.8395 37.4632C80.8366 40.6823 76.1349 45.8827 73.535 52.1789C70.935 58.475 70.5975 65.4778 72.5799 71.9949C74.5623 78.512 78.7421 84.1404 84.4077 87.922C90.0732 91.7035 96.8741 93.4043 103.653 92.7349C110.431 92.0654 116.768 89.067 121.584 84.2502C124.329 81.509 126.504 78.252 127.984 74.6667C129.465 71.0815 130.221 67.2388 130.211 63.3598Z" fill="#618D80" fill-opacity="0.8"/>
</svg>
